<svg xmlns="http://www.w3.org/2000/svg" xmlns:xlink="http://www.w3.org/1999/xlink">
<defs>

<symbol id="arrow-left" viewBox="0 0 33 33" fill="none" xmlns="http://www.w3.org/2000/svg">
<path d="M28.8749 15.125H8.81916L16.097 7.84714L14.1528 5.90289L3.55566 16.5L14.1528 27.0971L16.097 25.1529L8.81916 17.875H28.8749V15.125Z" fill="currentColor"/>
</symbol>

<symbol id="arrow-right" viewBox="0 0 33 33" fill="none" xmlns="http://www.w3.org/2000/svg">
<path d="M4.12509 15.125H24.1808L16.903 7.84714L18.8472 5.90289L29.4443 16.5L18.8472 27.0971L16.903 25.1529L24.1808 17.875H4.12509V15.125Z" fill="currentColor"/>
</symbol>

<symbol id="email" viewBox="0 0 24 24" fill="none" xmlns="http://www.w3.org/2000/svg">
<path d="M21.3333 4H2.66659C2.31296 4 1.97382 4.14048 1.72378 4.39052C1.47373 4.64057 1.33325 4.97971 1.33325 5.33333V18.6667C1.33325 19.0203 1.47373 19.3594 1.72378 19.6095C1.97382 19.8595 2.31296 20 2.66659 20H21.3333C21.6869 20 22.026 19.8595 22.2761 19.6095C22.5261 19.3594 22.6666 19.0203 22.6666 18.6667V5.33333C22.6666 4.97971 22.5261 4.64057 22.2761 4.39052C22.026 4.14048 21.6869 4 21.3333 4ZM20.3066 18.6667H3.77325L8.43992 13.84L7.47992 12.9133L2.66659 17.8933V6.34667L10.9533 14.5933C11.2031 14.8417 11.541 14.9811 11.8933 14.9811C12.2455 14.9811 12.5834 14.8417 12.8333 14.5933L21.3333 6.14V17.8067L16.4266 12.9L15.4866 13.84L20.3066 18.6667ZM3.53992 5.33333H20.2533L11.8933 13.6467L3.53992 5.33333Z" fill="currentColor"/>
</symbol>

<symbol id="facebook" viewBox="0 0 30 30" fill="none" xmlns="http://www.w3.org/2000/svg">
<path d="M16.7463 26.2462V16.0012H20.2025L20.7163 11.99H16.7463V9.435C16.7463 8.2775 17.0688 7.485 18.73 7.485H20.835V3.90875C19.8108 3.79899 18.7813 3.74599 17.7513 3.75C14.6963 3.75 12.5988 5.615 12.5988 9.03875V11.9825H9.16504V15.9937H12.6063V26.2462H16.7463Z" fill="currentColor"/>
</symbol>

<symbol id="instagram" viewBox="0 0 30 30" fill="none" xmlns="http://www.w3.org/2000/svg">
<path d="M14.9999 11.0947C12.8495 11.0947 11.0946 12.8496 11.0946 15C11.0946 17.1504 12.8495 18.9053 14.9999 18.9053C17.1503 18.9053 18.9052 17.1504 18.9052 15C18.9052 12.8496 17.1503 11.0947 14.9999 11.0947ZM26.7128 15C26.7128 13.3828 26.7275 11.7803 26.6366 10.166C26.5458 8.291 26.1181 6.62694 24.747 5.25584C23.373 3.88182 21.7118 3.45702 19.8368 3.3662C18.2196 3.27538 16.6171 3.29003 15.0028 3.29003C13.3856 3.29003 11.7831 3.27538 10.1688 3.3662C8.29384 3.45702 6.62978 3.88475 5.25869 5.25584C3.88466 6.62987 3.45986 8.291 3.36904 10.166C3.27822 11.7832 3.29286 13.3857 3.29286 15C3.29286 16.6142 3.27822 18.2197 3.36904 19.834C3.45986 21.709 3.88759 23.373 5.25869 24.7441C6.63271 26.1181 8.29384 26.5429 10.1688 26.6338C11.786 26.7246 13.3886 26.7099 15.0028 26.7099C16.62 26.7099 18.2226 26.7246 19.8368 26.6338C21.7118 26.5429 23.3759 26.1152 24.747 24.7441C26.121 23.3701 26.5458 21.709 26.6366 19.834C26.7304 18.2197 26.7128 16.6172 26.7128 15ZM14.9999 21.0088C11.6747 21.0088 8.99111 18.3252 8.99111 15C8.99111 11.6748 11.6747 8.99119 14.9999 8.99119C18.3251 8.99119 21.0087 11.6748 21.0087 15C21.0087 18.3252 18.3251 21.0088 14.9999 21.0088ZM21.2548 10.1484C20.4784 10.1484 19.8515 9.52147 19.8515 8.7451C19.8515 7.96873 20.4784 7.34178 21.2548 7.34178C22.0312 7.34178 22.6581 7.96873 22.6581 8.7451C22.6583 8.92945 22.6222 9.11204 22.5518 9.2824C22.4813 9.45276 22.378 9.60756 22.2476 9.73791C22.1172 9.86827 21.9625 9.97163 21.7921 10.0421C21.6217 10.1125 21.4391 10.1487 21.2548 10.1484Z" fill="currentColor"/>
</symbol>

<symbol id="location" viewBox="0 0 24 24" fill="none" xmlns="http://www.w3.org/2000/svg">
<path d="M12 13.5C11.2583 13.5 10.5333 13.2801 9.91661 12.868C9.29993 12.456 8.81928 11.8703 8.53545 11.1851C8.25162 10.4998 8.17736 9.74584 8.32206 9.01841C8.46675 8.29098 8.8239 7.6228 9.34835 7.09835C9.8728 6.5739 10.541 6.21675 11.2684 6.07206C11.9958 5.92736 12.7498 6.00162 13.4351 6.28545C14.1203 6.56928 14.706 7.04993 15.118 7.66661C15.5301 8.2833 15.75 9.00832 15.75 9.75C15.7488 10.7442 15.3533 11.6973 14.6503 12.4003C13.9473 13.1033 12.9942 13.4988 12 13.5ZM12 7.5C11.555 7.5 11.12 7.63196 10.75 7.8792C10.38 8.12643 10.0916 8.47783 9.92127 8.88896C9.75098 9.3001 9.70642 9.7525 9.79323 10.189C9.88005 10.6254 10.0943 11.0263 10.409 11.341C10.7237 11.6557 11.1246 11.87 11.561 11.9568C11.9975 12.0436 12.4499 11.999 12.861 11.8287C13.2722 11.6584 13.6236 11.37 13.8708 11C14.118 10.63 14.25 10.195 14.25 9.75C14.2494 9.15345 14.0122 8.5815 13.5903 8.15967C13.1685 7.73784 12.5966 7.5006 12 7.5Z" fill="currentColor"/>
<path d="M12 22.5L5.67301 15.0382C5.58509 14.9262 5.49809 14.8135 5.41201 14.7C4.33124 13.2763 3.74739 11.5374 3.75001 9.75C3.75001 7.56196 4.6192 5.46354 6.16638 3.91637C7.71355 2.36919 9.81197 1.5 12 1.5C14.188 1.5 16.2865 2.36919 17.8336 3.91637C19.3808 5.46354 20.25 7.56196 20.25 9.75C20.2526 11.5366 19.669 13.2747 18.5888 14.6978L18.588 14.7C18.588 14.7 18.363 14.9955 18.3293 15.0353L12 22.5ZM6.60901 13.7963C6.61051 13.7963 6.78451 14.0272 6.82426 14.0767L12 20.181L17.1825 14.0685C17.2155 14.0272 17.391 13.7948 17.3918 13.794C18.2746 12.6308 18.7517 11.2103 18.75 9.75C18.75 7.95979 18.0388 6.2429 16.773 4.97703C15.5071 3.71116 13.7902 3 12 3C10.2098 3 8.49291 3.71116 7.22704 4.97703C5.96117 6.2429 5.25001 7.95979 5.25001 9.75C5.24844 11.2112 5.72609 12.6326 6.60976 13.7963H6.60901Z" fill="currentColor"/>
</symbol>

<symbol id="phone" viewBox="0 0 24 24" fill="none" xmlns="http://www.w3.org/2000/svg">
<path d="M18 9.75H16.5C16.4994 9.15345 16.2622 8.5815 15.8403 8.15967C15.4185 7.73784 14.8466 7.5006 14.25 7.5V6C15.2442 6.00119 16.1973 6.39666 16.9003 7.09966C17.6033 7.80267 17.9988 8.7558 18 9.75Z" fill="currentColor"/>
<path d="M21 9.75H19.5C19.4984 8.3581 18.9448 7.02367 17.9606 6.03944C16.9764 5.05522 15.6419 4.50159 14.25 4.5V3C16.0396 3.00199 17.7554 3.71378 19.0208 4.97922C20.2862 6.24466 20.998 7.9604 21 9.75ZM19.5 21.75H19.3725C4.63503 20.9025 2.54253 8.4675 2.25003 4.6725C2.20431 4.07756 2.39679 3.48883 2.78512 3.03579C3.17346 2.58276 3.72584 2.30253 4.32078 2.25675C4.38028 2.25225 4.44003 2.25 4.50003 2.25H8.45253C8.75294 2.24971 9.04653 2.33963 9.29525 2.50812C9.54397 2.67661 9.73637 2.9159 9.84753 3.195L10.9875 6C11.0973 6.27266 11.1245 6.57156 11.0659 6.85957C11.0072 7.14758 10.8652 7.412 10.6575 7.62L9.06003 9.2325C9.30855 10.651 9.98732 11.9587 11.0043 12.9784C12.0212 13.998 13.3272 14.6802 14.745 14.9325L16.3725 13.32C16.5836 13.1146 16.8506 12.9759 17.14 12.9213C17.4294 12.8666 17.7285 12.8983 18 13.0125L20.8275 14.145C21.1024 14.2597 21.3369 14.4536 21.5012 14.702C21.6655 14.9504 21.7521 15.2422 21.75 15.54V19.5C21.75 20.0967 21.513 20.669 21.091 21.091C20.6691 21.5129 20.0968 21.75 19.5 21.75ZM4.50003 3.75C4.40154 3.7497 4.30395 3.76881 4.21284 3.80623C4.12173 3.84365 4.03889 3.89864 3.96904 3.96808C3.89918 4.03751 3.84369 4.12003 3.80573 4.21091C3.76776 4.30179 3.74807 4.39926 3.74778 4.49775C3.74778 4.51875 3.74853 4.5395 3.75003 4.56C4.09503 9 6.30753 19.5 19.455 20.25C19.6535 20.2619 19.8486 20.1945 19.9974 20.0625C20.1462 19.9306 20.2366 19.745 20.2485 19.5465L20.25 19.5V15.54L17.4225 14.4075L15.27 16.545L14.91 16.5C8.38503 15.6825 7.50003 9.1575 7.50003 9.09L7.45503 8.73L9.58503 6.5775L8.46003 3.75H4.50003Z" fill="currentColor"/>
</symbol>

<symbol id="twitter" viewBox="0 0 24 24" fill="none" xmlns="http://www.w3.org/2000/svg">
<g clip-path="url(#clip0_35_265)">
<path d="M24 2.84287C23.3317 4.06666 22.5117 5.10989 21.5402 5.97254C21.5498 6.2039 21.5546 6.4654 21.5546 6.75703C21.5546 8.3774 21.3627 9.99973 20.9789 11.624C20.5951 13.2483 20.0088 14.8031 19.2201 16.2882C18.4314 17.7734 17.4918 19.0892 16.4015 20.2355C15.3112 21.3818 14.0006 22.2958 12.4697 22.9775C10.9388 23.6592 9.29815 24 7.54763 24C4.81566 24 2.29978 23.0921 0 21.2762C0.408184 21.3321 0.799667 21.3601 1.17445 21.3601C3.45679 21.3601 5.49529 20.4947 7.28994 18.7638C6.22578 18.7398 5.27275 18.3365 4.43084 17.554C3.58894 16.7715 3.00956 15.7716 2.6927 14.5543C3.00589 14.6277 3.315 14.6645 3.62003 14.6645C4.05909 14.6645 4.49112 14.594 4.91613 14.453C3.78047 14.173 2.83835 13.4766 2.08976 12.364C1.3412 11.2514 0.966919 9.9672 0.966919 8.51146V8.43643C1.66399 8.91157 2.40752 9.1643 3.19752 9.19464C2.52477 8.64251 1.99138 7.92252 1.59735 7.03466C1.20329 6.14681 1.00626 5.18599 1.00626 4.15222C1.00626 3.06193 1.22819 2.04666 1.67205 1.10642C2.90705 2.97214 4.40352 4.46327 6.16144 5.57983C7.91939 6.69641 9.80533 7.31652 11.8193 7.44017C11.7334 6.99948 11.6903 6.5396 11.6902 6.06053C11.6902 4.38779 12.171 2.95952 13.1327 1.77571C14.0945 0.591904 15.2547 0 16.6135 0C18.0361 0 19.2344 0.637688 20.2083 1.91306C21.3211 1.64172 22.363 1.15093 23.3341 0.440688C22.96 1.89013 22.2391 3.00827 21.1714 3.79512C22.1527 3.65157 23.0955 3.33415 24 2.84287H24Z" fill="currentColor"/>
</g>
<defs>
<clipPath id="clip0_35_265">
<rect width="24" height="24" fill="white"/>
</clipPath>
</defs>
</symbol>

<symbol id="burger" viewBox="0 0 24 24" fill="none" xmlns="http://www.w3.org/2000/svg">
<path d="M4 18H20C20.55 18 21 17.55 21 17C21 16.45 20.55 16 20 16H4C3.45 16 3 16.45 3 17C3 17.55 3.45 18 4 18ZM4 13H20C20.55 13 21 12.55 21 12C21 11.45 20.55 11 20 11H4C3.45 11 3 11.45 3 12C3 12.55 3.45 13 4 13ZM3 7C3 7.55 3.45 8 4 8H20C20.55 8 21 7.55 21 7C21 6.45 20.55 6 20 6H4C3.45 6 3 6.45 3 7Z" fill="currentColor"/>
</symbol>

<symbol id="close" width="24" height="24" viewBox="0 0 24 24" fill="none" xmlns="http://www.w3.org/2000/svg">
<path d="M18.3 5.71022C18.2075 5.61752 18.0976 5.54397 17.9766 5.49379C17.8557 5.44361 17.726 5.41778 17.595 5.41778C17.464 5.41778 17.3344 5.44361 17.2134 5.49379C17.0924 5.54397 16.9825 5.61752 16.89 5.71022L12 10.5902L7.11001 5.70022C7.01743 5.60764 6.90752 5.5342 6.78655 5.4841C6.66559 5.43399 6.53594 5.4082 6.40501 5.4082C6.27408 5.4082 6.14443 5.43399 6.02347 5.4841C5.9025 5.5342 5.79259 5.60764 5.70001 5.70022C5.60743 5.79281 5.53399 5.90272 5.48388 6.02368C5.43378 6.14464 5.40799 6.27429 5.40799 6.40522C5.40799 6.53615 5.43378 6.6658 5.48388 6.78677C5.53399 6.90773 5.60743 7.01764 5.70001 7.11022L10.59 12.0002L5.70001 16.8902C5.60743 16.9828 5.53399 17.0927 5.48388 17.2137C5.43378 17.3346 5.40799 17.4643 5.40799 17.5952C5.40799 17.7262 5.43378 17.8558 5.48388 17.9768C5.53399 18.0977 5.60743 18.2076 5.70001 18.3002C5.79259 18.3928 5.9025 18.4662 6.02347 18.5163C6.14443 18.5665 6.27408 18.5922 6.40501 18.5922C6.53594 18.5922 6.66559 18.5665 6.78655 18.5163C6.90752 18.4662 7.01743 18.3928 7.11001 18.3002L12 13.4102L16.89 18.3002C16.9826 18.3928 17.0925 18.4662 17.2135 18.5163C17.3344 18.5665 17.4641 18.5922 17.595 18.5922C17.7259 18.5922 17.8556 18.5665 17.9766 18.5163C18.0975 18.4662 18.2074 18.3928 18.3 18.3002C18.3926 18.2076 18.466 18.0977 18.5161 17.9768C18.5662 17.8558 18.592 17.7262 18.592 17.5952C18.592 17.4643 18.5662 17.3346 18.5161 17.2137C18.466 17.0927 18.3926 16.9828 18.3 16.8902L13.41 12.0002L18.3 7.11022C18.68 6.73022 18.68 6.09022 18.3 5.71022V5.71022Z" fill="currentColor"/>
</symbol>










</defs>
</svg>